<?xml version="1.0" encoding="UTF-8" standalone="no"?>
<svg
   width="73.598694"
   height="179.0237"
   viewBox="0 0 73.598694 179.0237"
   version="1.1"
   id="svg9"
   sodipodi:docname="dotsv_white.svg"
   inkscape:version="1.1 (c68e22c387, 2021-05-23)"
   xmlns:inkscape="http://www.inkscape.org/namespaces/inkscape"
   xmlns:sodipodi="http://sodipodi.sourceforge.net/DTD/sodipodi-0.dtd"
   xmlns="http://www.w3.org/2000/svg"
   xmlns:svg="http://www.w3.org/2000/svg"
   xmlns:rdf="http://www.w3.org/1999/02/22-rdf-syntax-ns#"
   xmlns:x="adobe:ns:meta/">
  <sodipodi:namedview
     id="namedview11"
     pagecolor="#ffffff"
     bordercolor="#666666"
     borderopacity="1.0"
     inkscape:pageshadow="2"
     inkscape:pageopacity="0.0"
     inkscape:pagecheckerboard="0"
     showgrid="false"
     fit-margin-top="0"
     fit-margin-left="0"
     fit-margin-right="0"
     fit-margin-bottom="0"
     inkscape:zoom="2.9745889"
     inkscape:cx="-39.333167"
     inkscape:cy="107.4098"
     inkscape:window-width="1920"
     inkscape:window-height="1010"
     inkscape:window-x="-9"
     inkscape:window-y="-9"
     inkscape:window-maximized="1"
     inkscape:current-layer="svg9" />
  <metadata
     id="metadata2">
<?xpacket begin="﻿" id="W5M0MpCehiHzreSzNTczkc9d"?>    <x:xmpmeta
       x:xmptk="Adobe XMP Core 5.6-c138 79.159824, 2016/09/14-01:09:01        ">
      <rdf:RDF>
        <rdf:Description
           rdf:about="" />
      </rdf:RDF>
    </x:xmpmeta>
<?xpacket end="w"?>  </metadata>
  <defs
     id="defs6">
    <style
       id="style4">
      .cls-1 {
        fill: #fff;
        fill-rule: evenodd;
      }
    </style>
  </defs>
  <path
     id="Shape"
     class="cls-1"
     d="m 69.198696,8.8086929 c -3.9203,0 -5.8828,-4.73941 -3.1111,-7.51111 2.7717,-2.7717 7.5111,-0.80914003 7.5111,3.11111 0,2.43005 -1.9699,4.4 -4.4,4.4 z m 0,42.5510001 c -3.9203,0 -5.8828,-4.73941 -3.1111,-7.51111 2.7717,-2.7717 7.5111,-0.80914 7.5111,3.11111 0,2.4281 -1.9719,4.395 -4.4,4.395 z m 0,42.551 c -3.9203,0 -5.8828,-4.73941 -3.1111,-7.51111 2.7717,-2.7717 7.5111,-0.80914 7.5111,3.11111 0,2.42927 -1.9707,4.398 -4.4,4.398 z m 0,42.551997 c -3.9203,0 -5.8828,-4.73941 -3.1111,-7.51111 2.7717,-2.7717 7.5111,-0.80914 7.5111,3.11111 0,2.4281 -1.9719,4.395 -4.4,4.395 z m 0,42.551 c -3.9203,0 -5.8828,-4.73941 -3.1111,-7.51111 2.7717,-2.7717 7.5111,-0.80914 7.5111,3.11111 0,2.4281 -1.9719,4.395 -4.4,4.395 z m -32.4,-170.1999971 c -3.9178,-0.009 -5.8707,-4.74778 -3.0976,-7.51463 2.7732,-2.76685 7.5076,-0.80321003 7.5076,3.11463 0,2.43201 -1.978,4.40053 -4.41,4.395 z m 0,42.5510001 c -3.9178,-0.009 -5.8707,-4.74778 -3.0976,-7.51463 2.7732,-2.76685 7.5076,-0.80321 7.5076,3.11463 -0.01,2.43006 -1.9799,4.39553 -4.41,4.39 z m 0,42.551 c -3.9178,-0.009 -5.8707,-4.74778 -3.0976,-7.51463 2.7732,-2.76685 7.5076,-0.80321 7.5076,3.11463 0,2.43123 -1.9788,4.39853 -4.41,4.393 z m 0,42.551997 c -3.9178,-0.009 -5.8707,-4.74778 -3.0976,-7.51463 2.7732,-2.76685 7.5076,-0.80321 7.5076,3.11463 -0.01,2.43006 -1.9799,4.39553 -4.41,4.39 z m 0,42.551 c -3.9178,-0.009 -5.8707,-4.74778 -3.0976,-7.51463 2.7732,-2.76685 7.5076,-0.80321 7.5076,3.11463 -0.01,2.43006 -1.9799,4.39553 -4.41,4.39 z M 4.408696,8.8186929 c -3.92030005,0 -5.8828,-4.73941 -3.1111,-7.51111 2.7717,-2.7717 7.5111,-0.80914003 7.5111,3.11111 -0.01,2.42615 -1.9738,4.39001 -4.4,4.39 z m 0,42.5510001 c -3.92030005,0 -5.8828,-4.73941 -3.1111,-7.51111 2.7717,-2.7717 7.5111,-0.80914 7.5111,3.11111 -0.01,2.42419 -1.9758,4.38501 -4.4,4.385 z m 0,42.551 c -3.92030005,0 -5.8828,-4.73941 -3.1111,-7.51111 2.7717,-2.7717 7.5111,-0.80914 7.5111,3.11111 -0.01,2.42537 -1.9746,4.38801 -4.4,4.388 z m 0,42.551997 c -3.92030005,0 -5.8828,-4.73941 -3.1111,-7.51111 2.7717,-2.7717 7.5111,-0.80914 7.5111,3.11111 -0.01,2.42419 -1.9758,4.38501 -4.4,4.385 z m 0,42.551 c -3.92030005,0 -5.8828,-4.73941 -3.1111,-7.51111 2.7717,-2.7717 7.5111,-0.80914 7.5111,3.11111 -0.01,2.42419 -1.9758,4.38501 -4.4,4.385 z"
     sodipodi:nodetypes="sssscsccccsccccsccccsccccsccccsccccsccccsccccsccccsccccsccccsccccsccccsccc" />
</svg>
