<svg xmlns="http://www.w3.org/2000/svg" width="179" height="106" viewBox="0 0 179 106">
  <metadata><?xpacket begin="﻿" id="W5M0MpCehiHzreSzNTczkc9d"?>
<x:xmpmeta xmlns:x="adobe:ns:meta/" x:xmptk="Adobe XMP Core 5.6-c138 79.159824, 2016/09/14-01:09:01        ">
   <rdf:RDF xmlns:rdf="http://www.w3.org/1999/02/22-rdf-syntax-ns#">
      <rdf:Description rdf:about=""/>
   </rdf:RDF>
</x:xmpmeta>
                                                                                                    
                                                                                                    
                                                                                                    
                                                                                                    
                                                                                                    
                                                                                                    
                                                                                                    
                                                                                                    
                                                                                                    
                                                                                                    
                                                                                                    
                                                                                                    
                                                                                                    
                                                                                                    
                                                                                                    
                                                                                                    
                                                                                                    
                                                                                                    
                                                                                                    
                                                                                                    
                           
<?xpacket end="w"?></metadata>
<defs>
    <style>
      .cls-1 {
        fill: #7287ae;
        fill-rule: evenodd;
      }
    </style>
  </defs>
  <path id="Shape" class="cls-1" d="M465.205,2794.59a4.4,4.4,0,1,1,4.4,4.41A4.4,4.4,0,0,1,465.205,2794.59Zm-42.551,0a4.4,4.4,0,1,1,4.4,4.41A4.4,4.4,0,0,1,422.654,2794.59Zm-42.551,0a4.4,4.4,0,1,1,4.4,4.41A4.4,4.4,0,0,1,380.1,2794.59Zm-42.552,0a4.4,4.4,0,1,1,4.4,4.41A4.4,4.4,0,0,1,337.551,2794.59Zm-42.551,0a4.4,4.4,0,1,1,4.4,4.41A4.4,4.4,0,0,1,295,2794.59Zm170.205-32.39a4.4,4.4,0,1,1,4.4,4.4A4.4,4.4,0,0,1,465.205,2762.2Zm-42.551,0a4.4,4.4,0,1,1,4.4,4.4A4.4,4.4,0,0,1,422.654,2762.2Zm-42.551,0a4.4,4.4,0,1,1,4.4,4.4A4.4,4.4,0,0,1,380.1,2762.2Zm-42.552,0a4.4,4.4,0,1,1,4.4,4.4A4.4,4.4,0,0,1,337.551,2762.2Zm-42.551,0a4.4,4.4,0,1,1,4.4,4.4A4.4,4.4,0,0,1,295,2762.2Zm170.205-32.4a4.4,4.4,0,1,1,4.4,4.41A4.4,4.4,0,0,1,465.205,2729.8Zm-42.551,0a4.4,4.4,0,1,1,4.4,4.41A4.4,4.4,0,0,1,422.654,2729.8Zm-42.551,0a4.4,4.4,0,1,1,4.4,4.41A4.4,4.4,0,0,1,380.1,2729.8Zm-42.552,0a4.4,4.4,0,1,1,4.4,4.41A4.4,4.4,0,0,1,337.551,2729.8Zm-42.551,0a4.4,4.4,0,1,1,4.4,4.41A4.4,4.4,0,0,1,295,2729.8Zm170.205-32.39a4.4,4.4,0,1,1,4.4,4.4A4.4,4.4,0,0,1,465.205,2697.41Zm-42.551,0a4.4,4.4,0,1,1,4.4,4.4A4.4,4.4,0,0,1,422.654,2697.41Zm-42.551,0a4.4,4.4,0,1,1,4.4,4.4A4.4,4.4,0,0,1,380.1,2697.41Zm-42.552,0a4.4,4.4,0,1,1,4.4,4.4A4.4,4.4,0,0,1,337.551,2697.41Zm-42.551,0a4.4,4.4,0,1,1,4.4,4.4A4.4,4.4,0,0,1,295,2697.41Z" transform="translate(-295 -2693)"/>
</svg>
