<?xml version="1.0" encoding="UTF-8" standalone="no"?>
<svg
   width="1440"
   height="400"
   viewBox="0 0 1440 400"
   version="1.1"
   id="svg2030"
   sodipodi:docname="TopBgWave_1.svg"
   inkscape:version="1.1 (c68e22c387, 2021-05-23)"
   xmlns:inkscape="http://www.inkscape.org/namespaces/inkscape"
   xmlns:sodipodi="http://sodipodi.sourceforge.net/DTD/sodipodi-0.dtd"
   xmlns="http://www.w3.org/2000/svg"
   xmlns:svg="http://www.w3.org/2000/svg"
   xmlns:rdf="http://www.w3.org/1999/02/22-rdf-syntax-ns#"
   xmlns:x="adobe:ns:meta/">
  <sodipodi:namedview
     id="namedview2032"
     pagecolor="#ffffff"
     bordercolor="#666666"
     borderopacity="1.0"
     inkscape:pageshadow="2"
     inkscape:pageopacity="0.0"
     inkscape:pagecheckerboard="0"
     showgrid="false"
     inkscape:zoom="0.35355339"
     inkscape:cx="565.68542"
     inkscape:cy="-69.296465"
     inkscape:window-width="1920"
     inkscape:window-height="1010"
     inkscape:window-x="-9"
     inkscape:window-y="-9"
     inkscape:window-maximized="1"
     inkscape:current-layer="svg2030" />
  <metadata
     id="metadata2023">
<?xpacket begin="﻿" id="W5M0MpCehiHzreSzNTczkc9d"?>    <x:xmpmeta
       x:xmptk="Adobe XMP Core 5.6-c138 79.159824, 2016/09/14-01:09:01        ">
      <rdf:RDF>
        <rdf:Description
           rdf:about="" />
      </rdf:RDF>
    </x:xmpmeta>
<?xpacket end="w"?>  </metadata>
  <defs
     id="defs2027">
    <style
       id="style2025">
      .cls-1 {
        fill: #7287ae;
        fill-rule: evenodd;
      }
    </style>
  </defs>
  <path
     id="path2122"
     class="cls-1"
     d="m 1774.6963,-300.48965 c 69.6,95.05399 114.98,210.23001 114.63,328.03502 -0.35,117.805 -49.74,237.405 -141.72,311.088 -91.98,73.683 -227.07,94.70001 -331.9,40.88 -118.09,-60.623 -178.82,-197.186 -290.03,-269.63 -86.26,-56.184 -194.453,-67.952 -297.235,-61.779 -46.837,2.813 -93.732,9.012 -140.518,5.472 -46.786,-3.54 -94.612,-17.976 -128.238,-50.674 -37.178,-36.152 -52.346,-90.92501 -48.389,-142.62501 8.313,-108.63702 87.52,-223.36201 185.522,-270.09301 192.612,-91.846 373.9,-188.964 594.2,-167.079 191.468,19.028 370.078,121.259 483.678,276.405 z"
     style="fill:#f2ce94;fill-rule:evenodd" />
  <path
     id="Shape-3"
     class="cls-1"
     d="m 967.9241,0.47219 c -11.507,-5.243 -23.234,-11.156 -33.787,-19.529 a 72.434,72.434 0 0 1 -13.985,-14.609 74.988,74.988 0 0 1 -9.14,-17.391 108.123,108.123 0 0 1 -5.924,-26 c -0.683,-6.78 -0.583,-11.566 -0.062,-14.153 1.116,-5.222 3.811,-1.428 8.33,12.793 1.316,4.127 3.133,10.054 5.3,15.362 a 82.226,82.226 0 0 0 12.008,21.436 c 4.966,6.253 11.328,11.411 18.184,15.968 a 136.591,136.591 0 0 0 20.608,10.968 c 3.619,1.652 7.233,3.333 10.977,4.761 3.718,1.482 7.422,3.007 11.242,4.293 a 474.218,474.218 0 0 0 46.86,13.69401 c 34.99,8.551 70.99,15.738 106.05,27.80599 a 392.5,392.5 0 0 1 118.69,66.67296 331.162,331.162 0 0 1 52.41,54.773 388.783,388.783 0 0 1 36.58,57.563 c 10.53,19.88 20.03,39.85 30.99,58.575 a 283.578,283.578 0 0 0 17.03,26.017 175.134,175.134 0 0 0 20.07,22.728 c 14.59,13.837 31.6,24.877 50.27,30.607 5.62,1.91 13.23,2.9 16.91,3.78 4.75,1.13 8.63,2.23 8.86,3.3 0.08,0.37 -1.38,0.85 -3.53,1.38 -1.08,0.26 -2.33,0.53 -3.64,0.79 -1.3,0.21 -2.67,0.27 -3.97,0.37 -5.43,0.58 -12.97,-0.49 -19.47,-1.99 -17.35,-4.42 -33.3,-13.22 -47.08,-24.32 a 176.135,176.135 0 0 1 -19.32,-18.2 198.492,198.492 0 0 1 -16.36,-20.808 c -20.08,-28.989 -33.93,-61.163 -51.29,-90.675 a 352.987,352.987 0 0 0 -109.718,-115.632 352.931,352.931 0 0 0 -71.1,-36.461 c -25.03,-9.26696 -51.14,-15.89996 -77.55,-22.21596 -35.12,-8.561 -71.07,-16.914 -105.443,-31.653 z"
     style="fill:#ffffff;fill-rule:evenodd" />
  <path
     id="Shape"
     class="cls-1"
     d="m 1447,179.243 c 0,0 -250.41,-189.359 -604,-129.022 C 549.8,100.252 324.516,332.614 0,142.237 V -1212 h 1439 z" />
</svg>
